<svg id="Layer_1" data-name="Layer 1" xmlns="http://www.w3.org/2000/svg" xmlns:xlink="http://www.w3.org/1999/xlink" viewBox="0 0 658.5 500"><defs><linearGradient id="linear-gradient" x1="300.85" y1="87.09" x2="386.94" y2="383.61" gradientUnits="userSpaceOnUse"><stop offset="0" stop-color="#010101" stop-opacity="0"/><stop offset="0.95" stop-color="#010101"/></linearGradient><linearGradient id="linear-gradient-2" x1="324.8" y1="506.04" x2="378.66" y2="-120.4" xlink:href="#linear-gradient"/><linearGradient id="linear-gradient-3" x1="306.97" y1="355.42" x2="301.25" y2="232.22" xlink:href="#linear-gradient"/><linearGradient id="linear-gradient-4" x1="306.97" y1="328.77" x2="301.25" y2="205.56" xlink:href="#linear-gradient"/><linearGradient id="linear-gradient-5" x1="306.97" y1="299.45" x2="301.25" y2="176.25" xlink:href="#linear-gradient"/><linearGradient id="linear-gradient-6" x1="306.97" y1="271.02" x2="301.25" y2="147.81" xlink:href="#linear-gradient"/><linearGradient id="linear-gradient-7" x1="306.97" y1="244.37" x2="301.25" y2="121.16" xlink:href="#linear-gradient"/><linearGradient id="linear-gradient-8" x1="306.97" y1="215.05" x2="301.25" y2="91.85" xlink:href="#linear-gradient"/><linearGradient id="linear-gradient-9" x1="306.97" y1="188.4" x2="301.25" y2="65.2" xlink:href="#linear-gradient"/><linearGradient id="linear-gradient-10" x1="284.43" y1="28.6" x2="343.64" y2="354.9" gradientUnits="userSpaceOnUse"><stop offset="0" stop-color="#fff" stop-opacity="0"/><stop offset="0.95" stop-color="#fff"/></linearGradient><linearGradient id="linear-gradient-11" x1="320.76" y1="88.11" x2="291.52" y2="241.82" xlink:href="#linear-gradient-10"/><linearGradient id="linear-gradient-12" x1="466.06" y1="430.62" x2="460.34" y2="307.41" xlink:href="#linear-gradient"/><linearGradient id="linear-gradient-13" x1="466.06" y1="403.97" x2="460.34" y2="280.76" xlink:href="#linear-gradient"/><linearGradient id="linear-gradient-14" x1="466.06" y1="374.65" x2="460.34" y2="251.44" xlink:href="#linear-gradient"/><linearGradient id="linear-gradient-15" x1="210.63" y1="432.66" x2="204.91" y2="309.45" xlink:href="#linear-gradient"/><linearGradient id="linear-gradient-16" x1="210.63" y1="406.01" x2="204.91" y2="282.8" xlink:href="#linear-gradient"/><linearGradient id="linear-gradient-17" x1="210.63" y1="376.69" x2="204.91" y2="253.48" xlink:href="#linear-gradient"/><linearGradient id="linear-gradient-18" x1="210.63" y1="350.04" x2="204.91" y2="226.83" xlink:href="#linear-gradient"/><linearGradient id="linear-gradient-19" x1="188.09" y1="190.23" x2="247.3" y2="516.54" xlink:href="#linear-gradient-10"/><linearGradient id="linear-gradient-20" x1="224.42" y1="249.75" x2="195.18" y2="403.46" xlink:href="#linear-gradient-10"/><linearGradient id="linear-gradient-21" x1="466.06" y1="346.22" x2="460.34" y2="223.01" xlink:href="#linear-gradient"/><linearGradient id="linear-gradient-22" x1="466.06" y1="319.56" x2="460.34" y2="196.36" xlink:href="#linear-gradient"/><linearGradient id="linear-gradient-23" x1="466.06" y1="290.25" x2="460.34" y2="167.04" xlink:href="#linear-gradient"/><linearGradient id="linear-gradient-24" x1="466.06" y1="263.6" x2="460.34" y2="140.39" xlink:href="#linear-gradient"/><linearGradient id="linear-gradient-25" x1="443.52" y1="103.79" x2="502.73" y2="430.09" xlink:href="#linear-gradient-10"/><linearGradient id="linear-gradient-26" x1="479.85" y1="163.31" x2="450.61" y2="317.02" xlink:href="#linear-gradient-10"/><linearGradient id="linear-gradient-27" x1="-802.59" y1="311.23" x2="-882.88" y2="352.49" gradientTransform="matrix(-0.99, 0.16, 0.16, 0.99, -470.1, -25.62)" xlink:href="#linear-gradient"/><linearGradient id="linear-gradient-28" x1="-878.66" y1="251.91" x2="-831.34" y2="232.18" gradientTransform="matrix(-1, 0, 0, 1, -487.43, 0)" xlink:href="#linear-gradient"/><linearGradient id="linear-gradient-29" x1="-921.15" y1="252.92" x2="-828.3" y2="207.39" gradientTransform="matrix(-1, 0, 0, 1, -487.43, 0)" xlink:href="#linear-gradient"/><linearGradient id="linear-gradient-30" x1="-855.73" y1="247.58" x2="-926.59" y2="208.56" gradientTransform="matrix(-1, 0, 0, 1, -487.43, 0)" xlink:href="#linear-gradient"/><linearGradient id="linear-gradient-31" x1="-908.18" y1="213.55" x2="-966.26" y2="207.49" gradientTransform="matrix(-1, 0, 0, 1, -487.43, 0)" xlink:href="#linear-gradient"/><linearGradient id="linear-gradient-32" x1="-904.53" y1="156.89" x2="-986.46" y2="183.5" gradientTransform="matrix(-1, 0, 0, 1, -487.43, 0)" xlink:href="#linear-gradient"/><linearGradient id="linear-gradient-33" x1="-912.29" y1="189.06" x2="-959.98" y2="177.99" gradientTransform="matrix(-1, 0, 0, 1, -487.43, 0)" xlink:href="#linear-gradient"/><linearGradient id="linear-gradient-34" x1="-868.75" y1="178.93" x2="-913" y2="198.82" gradientTransform="matrix(-1, 0, 0, 1, -487.43, 0)" xlink:href="#linear-gradient"/><linearGradient id="linear-gradient-35" x1="-890.48" y1="191.12" x2="-891.26" y2="202.9" gradientTransform="matrix(-1, 0, 0, 1, -487.43, 0)" xlink:href="#linear-gradient"/><linearGradient id="linear-gradient-36" x1="-896.29" y1="118.55" x2="-838.77" y2="48.47" gradientTransform="matrix(-1, 0, 0, 1, -487.43, 0)" xlink:href="#linear-gradient"/><linearGradient id="linear-gradient-37" x1="-897.25" y1="94.09" x2="-886.31" y2="92.57" gradientTransform="matrix(-1, 0, 0, 1, -487.43, 0)" xlink:href="#linear-gradient"/><linearGradient id="linear-gradient-38" x1="354.74" y1="209.9" x2="405.08" y2="152.67" xlink:href="#linear-gradient-10"/><linearGradient id="linear-gradient-39" x1="385.7" y1="199.52" x2="413.86" y2="167.51" xlink:href="#linear-gradient-10"/></defs><title>Bitcoin 1</title><path d="M663.35,361.76c.19,9.89-1.77,19.66-4.23,29.21a210.16,210.16,0,0,1-13.43,37.71,157.18,157.18,0,0,1-7.85,14.61c-8.23,13.74-18.46,25.89-31,35.37-29.29,22.23-67,27-103,27.89-89.84,2.34-179.3-14.53-269.17-14-39.41.23-79.19,3.74-117.88-4.08-24.73-5-49.42-15.55-68.82-32.19a108.33,108.33,0,0,1-26.95-34.16c-1-2-1.92-4-2.75-6C10.75,398.26,7.76,378.52,6,359c-1.43-15.25-2.15-31,2.49-45.49,4.84-15.13,15.1-27.48,25.45-39a785.68,785.68,0,0,1,68.81-68c16.12-14,32.91-27.51,45.75-44.92,26.57-36,29.33-91.27,59.79-123.16C231,14.64,280.56,1.61,310.38,8.71c30.24,7.21,55.15,30.54,85,39.37,35.33,10.46,73-.45,109.54,2.38a150.32,150.32,0,0,1,83,33.55c10.72,8.72,20.76,19.6,24.5,33.41,3.32,12.34,1.32,25.48.64,38.31-3.05,56.77,20.65,110.68,40.17,163.6C658.26,333,663.13,347.07,663.35,361.76Z" transform="translate(-4.87 -6.78)" fill="#38d779" opacity="0.24" style="isolation:isolate"/><polygon points="97.35 278.95 321.6 74.89 421.31 146.71 508.65 80.21 483.14 74.89 485.27 56.83 554.35 67.45 539.47 125.91 523 124.31 524.06 97.75 419.89 185.8 317.87 116.1 141.23 271.37 97.35 278.95" fill="#38d779"/><polygon points="97.35 278.95 321.6 74.89 421.31 146.71 508.65 80.21 483.14 74.89 485.27 56.83 554.35 67.45 539.47 125.91 523 124.31 524.06 97.75 419.89 185.8 317.87 116.1 141.23 271.37 97.35 278.95" fill="url(#linear-gradient)"/><path d="M376.24,85.43A7.86,7.86,0,0,1,380,77.67,7.9,7.9,0,0,0,381.1,77a6.66,6.66,0,0,0,1-1.15,12.36,12.36,0,0,1,6.53-4.17,28.39,28.39,0,0,1,7.81-.82,25.86,25.86,0,0,1,6.62.73,28.27,28.27,0,0,1,7.28,3.51,14.35,14.35,0,0,1,4,3.21,5.27,5.27,0,0,1,1.08,4.85c-.63,1.79-2.51,3-3,4.81a12.6,12.6,0,0,0-.15,2.75,8.11,8.11,0,0,1-1.09,3.71,2.07,2.07,0,0,1-.93.94,1.64,1.64,0,0,1-1.72-.48,5.35,5.35,0,0,1-.94-1.64,10.8,10.8,0,0,0-3-4.29c-1.95-1.52-4.56-1.79-7-2a32.34,32.34,0,0,0-8.57.28,14.07,14.07,0,0,0-4.25,1.58c-1,.58-2.28,2.4-3.34,2.59C378.89,91.9,376.52,87.34,376.24,85.43Z" transform="translate(-4.87 -6.78)" fill="#606161"/><path d="M645.69,428.68c-.61,5.78-3.21,11.25-7.85,14.61-5.59,4-13,4.45-19.86,4.72-68.85,2.53-138,3.43-206.51-4-19.29-2.11-38.62-4.87-58-4.49-18.23.34-36.27,3.44-54.24,6.68C237.57,457.29,175.62,469.94,113,468.39c-21.82-.53-45.07-3.74-65-12.15a108.33,108.33,0,0,1-26.95-34.16c-1-2-1.92-4-2.75-6,27.66-22.2,62.16-32.77,95-45.64,47.11-18.5,95.73-24.65,145.93-28.31q49.49-3.57,99-6c33.18-1.62,66.74-2.87,99.39,3.44,27.74,5.32,54.13,16,81.42,23.25,32.73,8.68,68.85,13.59,93.27,37,6,5.81,11.25,12.83,12.95,21A25.14,25.14,0,0,1,645.69,428.68Z" transform="translate(-4.87 -6.78)" fill="url(#linear-gradient-2)"/><path d="M424.6,324.49c0,16.57-53.47,30-119.43,30s-119.43-13.44-119.43-30c0-2.13-.28-10.12.13-18.79,0-1,.08-2,.12-3.07,2.12-8.66,18.92-16.33,44.21-21.44,21.62,5.11,48.34,13.35,75,13.35,26.19,0,52-8.1,73.13-13.73,26.19,5.11,43.69,12.87,46,21.68,0,1.18.09,2.36.13,3.5v.09C424.8,314.79,424.6,322.55,424.6,324.49Z" transform="translate(-4.87 -6.78)" fill="#fdcd01"/><path d="M424.6,324.49c0,16.57-53.47,30-119.43,30s-119.43-13.44-119.43-30c0-2.13-.28-10.12.13-18.79,0-1,.08-2,.12-3.07,2.12-8.66,18.92-16.33,44.21-21.44,21.62,5.11,48.34,13.35,75,13.35,26.19,0,52-8.1,73.13-13.73,26.19,5.11,43.69,12.87,46,21.68,0,1.18.09,2.36.13,3.5v.09C424.8,314.79,424.6,322.55,424.6,324.49Z" transform="translate(-4.87 -6.78)" fill="url(#linear-gradient-3)"/><path d="M424.6,304.52a6.41,6.41,0,0,1-.16,1.47v.09c-3.19,15.81-55.39,28.4-119.27,28.4-64.4,0-116.9-12.78-119.3-28.78a5.2,5.2,0,0,1-.13-1.18,7.22,7.22,0,0,1,.25-1.89c2.12-8.66,18.92-16.33,44.21-21.44,20.48-4.17,46.54-6.67,75-6.67,27.57,0,52.94,2.36,73.13,6.29,26.19,5.11,43.69,12.87,46,21.68A6.78,6.78,0,0,1,424.6,304.52Z" transform="translate(-4.87 -6.78)" fill="#fdcd01"/><path d="M424.6,297.84c0,16.57-53.47,30-119.43,30s-119.43-13.44-119.43-30c0-2.13-.28-10.13.13-18.79,0-1,.08-2,.12-3.07,2.12-8.66,18.92-16.33,44.21-21.44,21.62,5.11,48.34,13.34,75,13.34,26.19,0,52-8.09,73.13-13.72,26.19,5.11,43.69,12.87,46,21.67,0,1.19.09,2.37.13,3.51v.09C424.8,288.14,424.6,295.9,424.6,297.84Z" transform="translate(-4.87 -6.78)" fill="#fdcd01"/><path d="M424.6,297.84c0,16.57-53.47,30-119.43,30s-119.43-13.44-119.43-30c0-2.13-.28-10.13.13-18.79,0-1,.08-2,.12-3.07,2.12-8.66,18.92-16.33,44.21-21.44,21.62,5.11,48.34,13.34,75,13.34,26.19,0,52-8.09,73.13-13.72,26.19,5.11,43.69,12.87,46,21.67,0,1.19.09,2.37.13,3.51v.09C424.8,288.14,424.6,295.9,424.6,297.84Z" transform="translate(-4.87 -6.78)" fill="url(#linear-gradient-4)"/><path d="M424.6,277.87a6.41,6.41,0,0,1-.16,1.47v.09c-3.19,15.81-55.39,28.4-119.27,28.4-64.4,0-116.9-12.78-119.3-28.78a5.27,5.27,0,0,1-.13-1.18A7.16,7.16,0,0,1,186,276c2.12-8.66,18.92-16.33,44.21-21.44,20.48-4.17,46.54-6.68,75-6.68,27.57,0,52.94,2.37,73.13,6.3,26.19,5.11,43.69,12.87,46,21.67A6.89,6.89,0,0,1,424.6,277.87Z" transform="translate(-4.87 -6.78)" fill="#fdcd01"/><path d="M424.6,268.53c0,16.56-53.47,30-119.43,30s-119.43-13.44-119.43-30c0-2.13-.28-10.13.13-18.79,0-1,.08-2,.12-3.08,2.12-8.66,18.92-16.33,44.21-21.44,21.62,5.11,48.34,13.35,75,13.35,26.19,0,52-8.1,73.13-13.73,26.19,5.11,43.69,12.87,46,21.68,0,1.18.09,2.36.13,3.5v.1C424.8,258.82,424.6,266.59,424.6,268.53Z" transform="translate(-4.87 -6.78)" fill="#fdcd01"/><path d="M424.6,268.53c0,16.56-53.47,30-119.43,30s-119.43-13.44-119.43-30c0-2.13-.28-10.13.13-18.79,0-1,.08-2,.12-3.08,2.12-8.66,18.92-16.33,44.21-21.44,21.62,5.11,48.34,13.35,75,13.35,26.19,0,52-8.1,73.13-13.73,26.19,5.11,43.69,12.87,46,21.68,0,1.18.09,2.36.13,3.5v.1C424.8,258.82,424.6,266.59,424.6,268.53Z" transform="translate(-4.87 -6.78)" fill="url(#linear-gradient-5)"/><path d="M424.6,248.55a6.36,6.36,0,0,1-.16,1.47v.1c-3.19,15.8-55.39,28.39-119.27,28.39-64.4,0-116.9-12.78-119.3-28.77a5.36,5.36,0,0,1-.13-1.19,7.28,7.28,0,0,1,.25-1.89c2.12-8.66,18.92-16.33,44.21-21.44,20.48-4.16,46.54-6.67,75-6.67,27.57,0,52.94,2.36,73.13,6.29,26.19,5.11,43.69,12.87,46,21.68A6.78,6.78,0,0,1,424.6,248.55Z" transform="translate(-4.87 -6.78)" fill="#fdcd01"/><path d="M424.6,240.09c0,16.57-53.47,30-119.43,30s-119.43-13.44-119.43-30c0-2.13-.28-10.13.13-18.79,0-1,.08-2,.12-3.07,2.12-8.66,18.92-16.33,44.21-21.44,21.62,5.11,48.34,13.34,75,13.34,26.19,0,52-8.09,73.13-13.72,26.19,5.11,43.69,12.87,46,21.67,0,1.19.09,2.37.13,3.51v.09C424.8,230.39,424.6,238.15,424.6,240.09Z" transform="translate(-4.87 -6.78)" fill="#fdcd01"/><path d="M424.6,240.09c0,16.57-53.47,30-119.43,30s-119.43-13.44-119.43-30c0-2.13-.28-10.13.13-18.79,0-1,.08-2,.12-3.07,2.12-8.66,18.92-16.33,44.21-21.44,21.62,5.11,48.34,13.34,75,13.34,26.19,0,52-8.09,73.13-13.72,26.19,5.11,43.69,12.87,46,21.67,0,1.19.09,2.37.13,3.51v.09C424.8,230.39,424.6,238.15,424.6,240.09Z" transform="translate(-4.87 -6.78)" fill="url(#linear-gradient-6)"/><path d="M424.6,220.12a6.41,6.41,0,0,1-.16,1.47v.09c-3.19,15.81-55.39,28.4-119.27,28.4-64.4,0-116.9-12.78-119.3-28.78a5.27,5.27,0,0,1-.13-1.18,7.16,7.16,0,0,1,.25-1.89c2.12-8.66,18.92-16.33,44.21-21.44,20.48-4.17,46.54-6.68,75-6.68,27.57,0,52.94,2.37,73.13,6.3,26.19,5.11,43.69,12.87,46,21.67A6.89,6.89,0,0,1,424.6,220.12Z" transform="translate(-4.87 -6.78)" fill="#fdcd01"/><path d="M424.6,213.44c0,16.57-53.47,30-119.43,30s-119.43-13.44-119.43-30c0-2.13-.28-10.13.13-18.79,0-1,.08-2,.12-3.07,2.12-8.67,18.92-16.33,44.21-21.44,21.62,5.11,48.34,13.34,75,13.34,26.19,0,52-8.09,73.13-13.72,26.19,5.11,43.69,12.87,46,21.67,0,1.19.09,2.37.13,3.51V195C424.8,203.74,424.6,211.5,424.6,213.44Z" transform="translate(-4.87 -6.78)" fill="#fdcd01"/><path d="M424.6,213.44c0,16.57-53.47,30-119.43,30s-119.43-13.44-119.43-30c0-2.13-.28-10.13.13-18.79,0-1,.08-2,.12-3.07,2.12-8.67,18.92-16.33,44.21-21.44,21.62,5.11,48.34,13.34,75,13.34,26.19,0,52-8.09,73.13-13.72,26.19,5.11,43.69,12.87,46,21.67,0,1.19.09,2.37.13,3.51V195C424.8,203.74,424.6,211.5,424.6,213.44Z" transform="translate(-4.87 -6.78)" fill="url(#linear-gradient-7)"/><path d="M424.6,193.47a6.47,6.47,0,0,1-.16,1.47V195c-3.19,15.81-55.39,28.4-119.27,28.4-64.4,0-116.9-12.78-119.3-28.78a5.27,5.27,0,0,1-.13-1.18,7.16,7.16,0,0,1,.25-1.89c2.12-8.67,18.92-16.33,44.21-21.44,20.48-4.17,46.54-6.68,75-6.68,27.57,0,52.94,2.37,73.13,6.3,26.19,5.11,43.69,12.87,46,21.67A6.89,6.89,0,0,1,424.6,193.47Z" transform="translate(-4.87 -6.78)" fill="#fdcd01"/><path d="M424.6,184.12c0,16.57-53.47,30-119.43,30s-119.43-13.44-119.43-30c0-2.13-.28-10.12.13-18.78,0-1.05.08-2,.12-3.08,2.12-8.66,18.92-16.33,44.21-21.44,21.62,5.11,48.34,13.35,75,13.35,26.19,0,52-8.1,73.13-13.73,26.19,5.11,43.69,12.87,46,21.68,0,1.18.09,2.36.13,3.5v.09C424.8,174.42,424.6,182.18,424.6,184.12Z" transform="translate(-4.87 -6.78)" fill="#fdcd01"/><path d="M424.6,184.12c0,16.57-53.47,30-119.43,30s-119.43-13.44-119.43-30c0-2.13-.28-10.12.13-18.78,0-1.05.08-2,.12-3.08,2.12-8.66,18.92-16.33,44.21-21.44,21.62,5.11,48.34,13.35,75,13.35,26.19,0,52-8.1,73.13-13.73,26.19,5.11,43.69,12.87,46,21.68,0,1.18.09,2.36.13,3.5v.09C424.8,174.42,424.6,182.18,424.6,184.12Z" transform="translate(-4.87 -6.78)" fill="url(#linear-gradient-8)"/><path d="M424.6,164.15a6.36,6.36,0,0,1-.16,1.47v.09c-3.19,15.81-55.39,28.4-119.27,28.4-64.4,0-116.9-12.78-119.3-28.77a5.36,5.36,0,0,1-.13-1.19,7.22,7.22,0,0,1,.25-1.89c2.12-8.66,18.92-16.33,44.21-21.44,20.48-4.17,46.54-6.67,75-6.67,27.57,0,52.94,2.36,73.13,6.29,26.19,5.11,43.69,12.87,46,21.68A6.78,6.78,0,0,1,424.6,164.15Z" transform="translate(-4.87 -6.78)" fill="#fdcd01"/><path d="M424.6,157.47c0,16.57-53.47,30-119.43,30s-119.43-13.44-119.43-30c0-2.13-.28-10.13.13-18.79,0-1,.08-2,.12-3.07,2.12-8.66,18.92-16.33,44.21-21.44,21.62,5.11,48.34,13.34,75,13.34,26.19,0,52-8.09,73.13-13.72,26.19,5.11,43.69,12.87,46,21.68,0,1.18.09,2.36.13,3.5v.09C424.8,147.77,424.6,155.53,424.6,157.47Z" transform="translate(-4.87 -6.78)" fill="#fdcd01"/><path d="M424.6,157.47c0,16.57-53.47,30-119.43,30s-119.43-13.44-119.43-30c0-2.13-.28-10.13.13-18.79,0-1,.08-2,.12-3.07,2.12-8.66,18.92-16.33,44.21-21.44,21.62,5.11,48.34,13.34,75,13.34,26.19,0,52-8.09,73.13-13.72,26.19,5.11,43.69,12.87,46,21.68,0,1.18.09,2.36.13,3.5v.09C424.8,147.77,424.6,155.53,424.6,157.47Z" transform="translate(-4.87 -6.78)" fill="url(#linear-gradient-9)"/><path d="M424.6,137.5a6.41,6.41,0,0,1-.16,1.47v.09c-3.19,15.81-55.39,28.4-119.27,28.4-64.4,0-116.9-12.78-119.3-28.78a5.27,5.27,0,0,1-.13-1.18,7.22,7.22,0,0,1,.25-1.89c2.12-8.66,18.92-16.33,44.21-21.44,20.48-4.17,46.54-6.68,75-6.68,27.57,0,52.94,2.37,73.13,6.3,26.19,5.11,43.69,12.87,46,21.68A6.78,6.78,0,0,1,424.6,137.5Z" transform="translate(-4.87 -6.78)" fill="#fdcd01"/><path d="M401.64,135.62a5.17,5.17,0,0,1-.13,1.2v.07c-2.6,13-45.36,23.26-97.67,23.26-52.75,0-95.74-10.47-97.71-23.57a5.21,5.21,0,0,1-.1-1,6.42,6.42,0,0,1,.2-1.56c1.74-7.09,15.5-13.37,36.21-17.55,16.77-3.41,38.12-5.47,61.4-5.47,22.58,0,43.36,1.94,59.89,5.16,21.45,4.18,35.78,10.54,37.68,17.75A5.61,5.61,0,0,1,401.64,135.62Z" transform="translate(-4.87 -6.78)" fill="url(#linear-gradient-10)"/><path d="M280.72,150.58a81.17,81.17,0,0,1-8.13-.39,64,64,0,0,1-6.73-1,35.05,35.05,0,0,1-5-1.37,21.73,21.73,0,0,1-5.73-3.08,49.75,49.75,0,0,1-4-3.53l-13.79-13.52,1.37-.14a20.13,20.13,0,0,0,3.68,1.66,22.3,22.3,0,0,0,4.88,1.07,20.36,20.36,0,0,0,2.71,0c1.13,0,2.41-.09,3.85-.18s2.91-.19,4.44-.33,3-.28,4.49-.44l5.22-.54,7.22-.74,8-.85,7.94-.85,7.25-.79,6-.65,6.13-.69,7.23-.8c1.64-.18,3.29-.37,5-.58s3.23-.43,4.72-.66,2.79-.47,3.93-.69a8.69,8.69,0,0,0,2.29-.66c1.06-.55,1.64-1.05,1.74-1.49a2.61,2.61,0,0,0-.51-1.78l1.37-.14,13.46,13.2a12.56,12.56,0,0,1,2.28,2.91,3.85,3.85,0,0,1,.4,2.85c-.38,1.52-1.9,2.9-4.58,4.15s-6.75,2.17-12.22,2.76a64.64,64.64,0,0,1-16.27-.09,36.93,36.93,0,0,1-11.87-3.52l-.54.06a3.73,3.73,0,0,1,.44,3,5.81,5.81,0,0,1-2.5,3,21,21,0,0,1-5.69,2.53,51.32,51.32,0,0,1-9.13,1.71A88.16,88.16,0,0,1,280.72,150.58Zm61.45-14.07c2.88-1,4.58-2.16,5.12-3.32q.94-2.06-1.86-4.8a11.78,11.78,0,0,0-1.79-1.46,9.53,9.53,0,0,0-1.72-1l-1.58.09q-.73,0-1.77.12l-2.57.24-4,.37-10.6,1.08-11,1.16-8.75,1-4.38.47,2.24,2.2a17.55,17.55,0,0,0,1.61,1.43q4.29,3.47,12.43,4.6a71,71,0,0,0,17.46.13A48.4,48.4,0,0,0,342.17,136.51ZM291,144.44a35.47,35.47,0,0,0,5.39-1.71,12.27,12.27,0,0,0,3.5-2.08,3.82,3.82,0,0,0,1.38-2.3,3.16,3.16,0,0,0-.44-1.85,11,11,0,0,0-1.68-2l-3.87-3.8-8.76.94-8.34.91q-3.84.41-7,.78l-5.52.62q-5.16.6-8.41,1.06a21.7,21.7,0,0,0-5,1.17,2.53,2.53,0,0,0-1.45,1.33c-.2.55.14,1.26,1.05,2.15a20.69,20.69,0,0,0,3.07,2.41,19.5,19.5,0,0,0,5.51,2.28A50.4,50.4,0,0,0,271,146a76.07,76.07,0,0,0,12.88-.4A54.86,54.86,0,0,0,291,144.44Z" transform="translate(-4.87 -6.78)" fill="#fdcd01"/><polygon points="339.64 120.9 337.18 118.49 356.71 116.38 359.16 118.79 339.64 120.9" fill="#fdcd01"/><polygon points="344.64 125.81 342.19 123.4 361.71 121.29 364.17 123.69 344.64 125.81" fill="#fdcd01"/><polygon points="224 133.42 221.54 131.01 241.06 128.9 243.52 131.3 224 133.42" fill="#fdcd01"/><polygon points="229 138.32 226.54 135.91 246.07 133.8 248.52 136.21 229 138.32" fill="#fdcd01"/><path d="M212.73,118.83l156.76,42.65s34.45-4,41.92-12.66L257.52,109.51S216.17,116.17,212.73,118.83Z" transform="translate(-4.87 -6.78)" fill="url(#linear-gradient-11)"/><path d="M583.69,399.69c0,16.56-53.48,30-119.43,30s-119.43-13.45-119.43-30c0-2.13-.29-10.13.12-18.79,0-1,.08-2,.12-3.08,2.12-8.66,18.93-16.32,44.22-21.44,21.62,5.12,48.33,13.35,75,13.35,26.18,0,52-8.09,73.13-13.72,26.19,5.11,43.69,12.87,46,21.67,0,1.19.08,2.37.12,3.5v.1C583.89,390,583.69,397.75,583.69,399.69Z" transform="translate(-4.87 -6.78)" fill="#fdcd01"/><path d="M583.69,399.69c0,16.56-53.48,30-119.43,30s-119.43-13.45-119.43-30c0-2.13-.29-10.13.12-18.79,0-1,.08-2,.12-3.08,2.12-8.66,18.93-16.32,44.22-21.44,21.62,5.12,48.33,13.35,75,13.35,26.18,0,52-8.09,73.13-13.72,26.19,5.11,43.69,12.87,46,21.67,0,1.19.08,2.37.12,3.5v.1C583.89,390,583.69,397.75,583.69,399.69Z" transform="translate(-4.87 -6.78)" fill="url(#linear-gradient-12)"/><path d="M583.69,379.72a5.86,5.86,0,0,1-.17,1.46v.1c-3.18,15.81-55.39,28.4-119.26,28.4-64.41,0-116.9-12.78-119.31-28.78a5.91,5.91,0,0,1-.12-1.18,7.73,7.73,0,0,1,.24-1.9c2.12-8.66,18.93-16.32,44.22-21.44,20.47-4.16,46.54-6.67,75-6.67,27.57,0,52.94,2.37,73.13,6.3,26.19,5.11,43.69,12.87,46,21.67A7.13,7.13,0,0,1,583.69,379.72Z" transform="translate(-4.87 -6.78)" fill="#fdcd01"/><path d="M583.69,373c0,16.56-53.48,30-119.43,30S344.83,389.6,344.83,373c0-2.13-.29-10.13.12-18.79,0-1,.08-2,.12-3.08,2.12-8.66,18.93-16.33,44.22-21.44,21.62,5.11,48.33,13.35,75,13.35,26.18,0,52-8.09,73.13-13.73,26.19,5.12,43.69,12.88,46,21.68,0,1.18.08,2.37.12,3.5v.1C583.89,363.34,583.69,371.1,583.69,373Z" transform="translate(-4.87 -6.78)" fill="#fdcd01"/><path d="M583.69,373c0,16.56-53.48,30-119.43,30S344.83,389.6,344.83,373c0-2.13-.29-10.13.12-18.79,0-1,.08-2,.12-3.08,2.12-8.66,18.93-16.33,44.22-21.44,21.62,5.11,48.33,13.35,75,13.35,26.18,0,52-8.09,73.13-13.73,26.19,5.12,43.69,12.88,46,21.68,0,1.18.08,2.37.12,3.5v.1C583.89,363.34,583.69,371.1,583.69,373Z" transform="translate(-4.87 -6.78)" fill="url(#linear-gradient-13)"/><path d="M583.69,353.07a5.86,5.86,0,0,1-.17,1.46v.1C580.34,370.44,528.13,383,464.26,383c-64.41,0-116.9-12.77-119.31-28.77a6,6,0,0,1-.12-1.18,7.73,7.73,0,0,1,.24-1.9c2.12-8.66,18.93-16.33,44.22-21.44,20.47-4.16,46.54-6.67,75-6.67,27.57,0,52.94,2.37,73.13,6.29,26.19,5.12,43.69,12.88,46,21.68A7.13,7.13,0,0,1,583.69,353.07Z" transform="translate(-4.87 -6.78)" fill="#fdcd01"/><path d="M583.69,343.72c0,16.57-53.48,30-119.43,30s-119.43-13.44-119.43-30c0-2.13-.29-10.13.12-18.79,0-1,.08-2,.12-3.07,2.12-8.66,18.93-16.33,44.22-21.44,21.62,5.11,48.33,13.34,75,13.34,26.18,0,52-8.09,73.13-13.72,26.19,5.11,43.69,12.87,46,21.67,0,1.19.08,2.37.12,3.51v.09C583.89,334,583.69,341.78,583.69,343.72Z" transform="translate(-4.87 -6.78)" fill="#fdcd01"/><path d="M583.69,343.72c0,16.57-53.48,30-119.43,30s-119.43-13.44-119.43-30c0-2.13-.29-10.13.12-18.79,0-1,.08-2,.12-3.07,2.12-8.66,18.93-16.33,44.22-21.44,21.62,5.11,48.33,13.34,75,13.34,26.18,0,52-8.09,73.13-13.72,26.19,5.11,43.69,12.87,46,21.67,0,1.19.08,2.37.12,3.51v.09C583.89,334,583.69,341.78,583.69,343.72Z" transform="translate(-4.87 -6.78)" fill="url(#linear-gradient-14)"/><path d="M583.69,323.75a5.93,5.93,0,0,1-.17,1.47v.09c-3.18,15.81-55.39,28.4-119.26,28.4-64.41,0-116.9-12.78-119.31-28.78a5.91,5.91,0,0,1-.12-1.18,7.59,7.59,0,0,1,.24-1.89c2.12-8.66,18.93-16.33,44.22-21.44,20.47-4.17,46.54-6.68,75-6.68,27.57,0,52.94,2.37,73.13,6.3,26.19,5.11,43.69,12.87,46,21.67A7.23,7.23,0,0,1,583.69,323.75Z" transform="translate(-4.87 -6.78)" fill="#fdcd01"/><path d="M328.26,401.73c0,16.56-53.47,30-119.43,30S89.4,418.29,89.4,401.73c0-2.13-.28-10.13.13-18.79,0-1,.08-2,.12-3.08,2.12-8.66,18.92-16.32,44.21-21.44,21.62,5.12,48.34,13.35,75,13.35,26.19,0,52-8.09,73.13-13.72,26.19,5.11,43.69,12.87,46,21.67,0,1.19.09,2.37.13,3.5v.1C328.46,392,328.26,399.79,328.26,401.73Z" transform="translate(-4.87 -6.78)" fill="#fdcd01"/><path d="M328.26,401.73c0,16.56-53.47,30-119.43,30S89.4,418.29,89.4,401.73c0-2.13-.28-10.13.13-18.79,0-1,.08-2,.12-3.08,2.12-8.66,18.92-16.32,44.21-21.44,21.62,5.12,48.34,13.35,75,13.35,26.19,0,52-8.09,73.13-13.72,26.19,5.11,43.69,12.87,46,21.67,0,1.19.09,2.37.13,3.5v.1C328.46,392,328.26,399.79,328.26,401.73Z" transform="translate(-4.87 -6.78)" fill="url(#linear-gradient-15)"/><path d="M328.26,381.76a6.33,6.33,0,0,1-.16,1.46v.1c-3.19,15.81-55.39,28.4-119.27,28.4-64.4,0-116.9-12.78-119.3-28.78a5.27,5.27,0,0,1-.13-1.18,7.29,7.29,0,0,1,.25-1.9c2.12-8.66,18.92-16.32,44.21-21.44,20.48-4.16,46.54-6.67,75-6.67,27.57,0,52.94,2.37,73.13,6.3,26.19,5.11,43.69,12.87,46,21.67A6.8,6.8,0,0,1,328.26,381.76Z" transform="translate(-4.87 -6.78)" fill="#fdcd01"/><path d="M328.26,375.08c0,16.56-53.47,30-119.43,30S89.4,391.64,89.4,375.08c0-2.13-.28-10.13.13-18.79,0-1,.08-2,.12-3.08,2.12-8.66,18.92-16.33,44.21-21.44,21.62,5.11,48.34,13.35,75,13.35,26.19,0,52-8.09,73.13-13.73,26.19,5.12,43.69,12.88,46,21.68,0,1.18.09,2.37.13,3.5v.1C328.46,365.38,328.26,373.14,328.26,375.08Z" transform="translate(-4.87 -6.78)" fill="#fdcd01"/><path d="M328.26,375.08c0,16.56-53.47,30-119.43,30S89.4,391.64,89.4,375.08c0-2.13-.28-10.13.13-18.79,0-1,.08-2,.12-3.08,2.12-8.66,18.92-16.33,44.21-21.44,21.62,5.11,48.34,13.35,75,13.35,26.19,0,52-8.09,73.13-13.73,26.19,5.12,43.69,12.88,46,21.68,0,1.18.09,2.37.13,3.5v.1C328.46,365.38,328.26,373.14,328.26,375.08Z" transform="translate(-4.87 -6.78)" fill="url(#linear-gradient-16)"/><path d="M328.26,355.11a6.33,6.33,0,0,1-.16,1.46v.1c-3.19,15.81-55.39,28.39-119.27,28.39-64.4,0-116.9-12.77-119.3-28.77a5.33,5.33,0,0,1-.13-1.18,7.29,7.29,0,0,1,.25-1.9c2.12-8.66,18.92-16.33,44.21-21.44,20.48-4.16,46.54-6.67,75-6.67,27.57,0,52.94,2.37,73.13,6.29,26.19,5.12,43.69,12.88,46,21.68A6.8,6.8,0,0,1,328.26,355.11Z" transform="translate(-4.87 -6.78)" fill="#fdcd01"/><path d="M328.26,345.76c0,16.57-53.47,30-119.43,30S89.4,362.33,89.4,345.76c0-2.13-.28-10.13.13-18.79,0-1,.08-2,.12-3.07,2.12-8.67,18.92-16.33,44.21-21.44,21.62,5.11,48.34,13.34,75,13.34,26.19,0,52-8.09,73.13-13.72,26.19,5.11,43.69,12.87,46,21.67,0,1.19.09,2.37.13,3.51v.09C328.46,336.06,328.26,343.82,328.26,345.76Z" transform="translate(-4.87 -6.78)" fill="#fdcd01"/><path d="M328.26,345.76c0,16.57-53.47,30-119.43,30S89.4,362.33,89.4,345.76c0-2.13-.28-10.13.13-18.79,0-1,.08-2,.12-3.07,2.12-8.67,18.92-16.33,44.21-21.44,21.62,5.11,48.34,13.34,75,13.34,26.19,0,52-8.09,73.13-13.72,26.19,5.11,43.69,12.87,46,21.67,0,1.19.09,2.37.13,3.51v.09C328.46,336.06,328.26,343.82,328.26,345.76Z" transform="translate(-4.87 -6.78)" fill="url(#linear-gradient-17)"/><path d="M328.26,325.79a6.41,6.41,0,0,1-.16,1.47v.09c-3.19,15.81-55.39,28.4-119.27,28.4-64.4,0-116.9-12.78-119.3-28.78a5.27,5.27,0,0,1-.13-1.18,7.16,7.16,0,0,1,.25-1.89c2.12-8.67,18.92-16.33,44.21-21.44,20.48-4.17,46.54-6.68,75-6.68,27.57,0,52.94,2.37,73.13,6.3,26.19,5.11,43.69,12.87,46,21.67A6.89,6.89,0,0,1,328.26,325.79Z" transform="translate(-4.87 -6.78)" fill="#fdcd01"/><path d="M328.26,319.11c0,16.57-53.47,30-119.43,30S89.4,335.68,89.4,319.11c0-2.13-.28-10.13.13-18.79,0-1,.08-2,.12-3.08,2.12-8.66,18.92-16.32,44.21-21.43,21.62,5.11,48.34,13.34,75,13.34,26.19,0,52-8.09,73.13-13.72,26.19,5.11,43.69,12.87,46,21.67,0,1.19.09,2.37.13,3.51v.09C328.46,309.41,328.26,317.17,328.26,319.11Z" transform="translate(-4.87 -6.78)" fill="#fdcd01"/><path d="M328.26,319.11c0,16.57-53.47,30-119.43,30S89.4,335.68,89.4,319.11c0-2.13-.28-10.13.13-18.79,0-1,.08-2,.12-3.08,2.12-8.66,18.92-16.32,44.21-21.43,21.62,5.11,48.34,13.34,75,13.34,26.19,0,52-8.09,73.13-13.72,26.19,5.11,43.69,12.87,46,21.67,0,1.19.09,2.37.13,3.51v.09C328.46,309.41,328.26,317.17,328.26,319.11Z" transform="translate(-4.87 -6.78)" fill="url(#linear-gradient-18)"/><path d="M328.26,299.14a6.47,6.47,0,0,1-.16,1.47v.09c-3.19,15.81-55.39,28.4-119.27,28.4-64.4,0-116.9-12.78-119.3-28.78a5.27,5.27,0,0,1-.13-1.18,7.29,7.29,0,0,1,.25-1.9c2.12-8.66,18.92-16.32,44.21-21.43,20.48-4.17,46.54-6.68,75-6.68,27.57,0,52.94,2.37,73.13,6.3,26.19,5.11,43.69,12.87,46,21.67A6.89,6.89,0,0,1,328.26,299.14Z" transform="translate(-4.87 -6.78)" fill="#fdcd01"/><path d="M305.3,297.25a5.06,5.06,0,0,1-.13,1.2v.08c-2.6,13-45.36,23.26-97.67,23.26-52.75,0-95.74-10.47-97.71-23.57a5.32,5.32,0,0,1-.1-1,6.4,6.4,0,0,1,.2-1.55c1.74-7.09,15.5-13.37,36.21-17.56,16.77-3.41,38.12-5.46,61.4-5.46,22.58,0,43.36,1.94,59.89,5.15,21.45,4.19,35.78,10.55,37.68,17.76A5.59,5.59,0,0,1,305.3,297.25Z" transform="translate(-4.87 -6.78)" fill="url(#linear-gradient-19)"/><path d="M184.38,312.21a78.44,78.44,0,0,1-8.13-.38,64,64,0,0,1-6.73-1,33.64,33.64,0,0,1-5-1.38,21.17,21.17,0,0,1-5.73-3.08,47.87,47.87,0,0,1-4-3.52L141,289.32l1.37-.15a20.12,20.12,0,0,0,3.68,1.67,22.32,22.32,0,0,0,4.88,1.06,21.9,21.9,0,0,0,2.71.06c1.13,0,2.41-.1,3.85-.18s2.91-.19,4.44-.33,3-.28,4.49-.44l5.22-.54,7.22-.74,8-.85,7.94-.86,7.25-.78,6-.65,6.13-.69q3.12-.36,7.23-.8c1.64-.18,3.29-.37,4.95-.58s3.23-.43,4.72-.67,2.79-.46,3.93-.68a9.56,9.56,0,0,0,2.29-.66q1.59-.83,1.74-1.5a2.6,2.6,0,0,0-.51-1.77l1.37-.15,13.46,13.21a12.36,12.36,0,0,1,2.28,2.91,3.84,3.84,0,0,1,.4,2.85c-.38,1.52-1.9,2.9-4.58,4.15s-6.75,2.17-12.22,2.76a64.64,64.64,0,0,1-16.27-.09,37.19,37.19,0,0,1-11.87-3.52l-.54.05a3.76,3.76,0,0,1,.44,3,5.85,5.85,0,0,1-2.5,3,21,21,0,0,1-5.69,2.53,50.52,50.52,0,0,1-9.13,1.7A83.14,83.14,0,0,1,184.38,312.21Zm61.45-14.07c2.88-1.05,4.58-2.15,5.12-3.31q.95-2.07-1.86-4.81a12.42,12.42,0,0,0-1.79-1.46,9.42,9.42,0,0,0-1.72-.94l-1.58.08-1.77.13-2.57.23-4,.38q-4.83.46-10.6,1.08l-11,1.16-8.75.95-4.38.47,2.24,2.2a17.55,17.55,0,0,0,1.61,1.43q4.29,3.45,12.43,4.6a71,71,0,0,0,17.46.13A47.82,47.82,0,0,0,245.83,298.14Zm-51.22,7.94a35.47,35.47,0,0,0,5.39-1.71,12.5,12.5,0,0,0,3.5-2.08,3.82,3.82,0,0,0,1.38-2.3,3.14,3.14,0,0,0-.44-1.85,10.63,10.63,0,0,0-1.68-2l-3.87-3.81-8.76.95-8.34.9q-3.84.42-7,.79l-5.52.62q-5.16.6-8.41,1.06a21.7,21.7,0,0,0-5,1.17,2.5,2.5,0,0,0-1.45,1.33c-.2.54.14,1.26,1.05,2.15a20.69,20.69,0,0,0,3.07,2.41,19.52,19.52,0,0,0,5.51,2.27,50.4,50.4,0,0,0,10.6,1.68,77.06,77.06,0,0,0,12.88-.39A56.65,56.65,0,0,0,194.61,306.08Z" transform="translate(-4.87 -6.78)" fill="#fdcd01"/><polygon points="243.3 282.54 240.84 280.13 260.37 278.02 262.82 280.43 243.3 282.54" fill="#fdcd01"/><polygon points="248.3 287.44 245.85 285.04 265.37 282.92 267.83 285.33 248.3 287.44" fill="#fdcd01"/><polygon points="127.66 295.05 125.2 292.64 144.72 290.53 147.18 292.94 127.66 295.05" fill="#fdcd01"/><polygon points="132.66 299.96 130.21 297.55 149.73 295.44 152.18 297.85 132.66 299.96" fill="#fdcd01"/><path d="M116.39,280.47l156.76,42.64s34.45-4,41.92-12.65L161.18,271.14S119.83,277.81,116.39,280.47Z" transform="translate(-4.87 -6.78)" fill="url(#linear-gradient-20)"/><path d="M583.69,315.29c0,16.56-53.48,30-119.43,30s-119.43-13.44-119.43-30c0-2.13-.29-10.13.12-18.79,0-1,.08-2,.12-3.08,2.12-8.66,18.93-16.33,44.22-21.44,21.62,5.11,48.33,13.35,75,13.35,26.18,0,52-8.09,73.13-13.73,26.19,5.12,43.69,12.88,46,21.68,0,1.18.08,2.37.12,3.5v.1C583.89,305.59,583.69,313.35,583.69,315.29Z" transform="translate(-4.87 -6.78)" fill="#fdcd01"/><path d="M583.69,315.29c0,16.56-53.48,30-119.43,30s-119.43-13.44-119.43-30c0-2.13-.29-10.13.12-18.79,0-1,.08-2,.12-3.08,2.12-8.66,18.93-16.33,44.22-21.44,21.62,5.11,48.33,13.35,75,13.35,26.18,0,52-8.09,73.13-13.73,26.19,5.12,43.69,12.88,46,21.68,0,1.18.08,2.37.12,3.5v.1C583.89,305.59,583.69,313.35,583.69,315.29Z" transform="translate(-4.87 -6.78)" fill="url(#linear-gradient-21)"/><path d="M583.69,295.32a5.86,5.86,0,0,1-.17,1.46v.1c-3.18,15.81-55.39,28.39-119.26,28.39-64.41,0-116.9-12.77-119.31-28.77a6,6,0,0,1-.12-1.18,7.73,7.73,0,0,1,.24-1.9c2.12-8.66,18.93-16.33,44.22-21.44,20.47-4.16,46.54-6.67,75-6.67,27.57,0,52.94,2.37,73.13,6.29,26.19,5.12,43.69,12.88,46,21.68A7.13,7.13,0,0,1,583.69,295.32Z" transform="translate(-4.87 -6.78)" fill="#fdcd01"/><path d="M583.69,288.64c0,16.56-53.48,30-119.43,30s-119.43-13.44-119.43-30c0-2.13-.29-10.13.12-18.79,0-1,.08-2,.12-3.08,2.12-8.66,18.93-16.33,44.22-21.44,21.62,5.11,48.33,13.35,75,13.35,26.18,0,52-8.09,73.13-13.73,26.19,5.11,43.69,12.88,46,21.68,0,1.18.08,2.37.12,3.5v.1C583.89,278.93,583.69,286.7,583.69,288.64Z" transform="translate(-4.87 -6.78)" fill="#fdcd01"/><path d="M583.69,288.64c0,16.56-53.48,30-119.43,30s-119.43-13.44-119.43-30c0-2.13-.29-10.13.12-18.79,0-1,.08-2,.12-3.08,2.12-8.66,18.93-16.33,44.22-21.44,21.62,5.11,48.33,13.35,75,13.35,26.18,0,52-8.09,73.13-13.73,26.19,5.11,43.69,12.88,46,21.68,0,1.18.08,2.37.12,3.5v.1C583.89,278.93,583.69,286.7,583.69,288.64Z" transform="translate(-4.87 -6.78)" fill="url(#linear-gradient-22)"/><path d="M583.69,268.66a5.88,5.88,0,0,1-.17,1.47v.1c-3.18,15.8-55.39,28.39-119.26,28.39-64.41,0-116.9-12.78-119.31-28.77a6,6,0,0,1-.12-1.19,7.71,7.71,0,0,1,.24-1.89c2.12-8.66,18.93-16.33,44.22-21.44,20.47-4.16,46.54-6.67,75-6.67,27.57,0,52.94,2.36,73.13,6.29,26.19,5.11,43.69,12.88,46,21.68A7.12,7.12,0,0,1,583.69,268.66Z" transform="translate(-4.87 -6.78)" fill="#fdcd01"/><path d="M583.69,259.32c0,16.57-53.48,30-119.43,30s-119.43-13.44-119.43-30c0-2.13-.29-10.13.12-18.79,0-1,.08-2,.12-3.08,2.12-8.66,18.93-16.32,44.22-21.43,21.62,5.11,48.33,13.34,75,13.34,26.18,0,52-8.09,73.13-13.72,26.19,5.11,43.69,12.87,46,21.67,0,1.19.08,2.37.12,3.51v.09C583.89,249.62,583.69,257.38,583.69,259.32Z" transform="translate(-4.87 -6.78)" fill="#fdcd01"/><path d="M583.69,259.32c0,16.57-53.48,30-119.43,30s-119.43-13.44-119.43-30c0-2.13-.29-10.13.12-18.79,0-1,.08-2,.12-3.08,2.12-8.66,18.93-16.32,44.22-21.43,21.62,5.11,48.33,13.34,75,13.34,26.18,0,52-8.09,73.13-13.72,26.19,5.11,43.69,12.87,46,21.67,0,1.19.08,2.37.12,3.51v.09C583.89,249.62,583.69,257.38,583.69,259.32Z" transform="translate(-4.87 -6.78)" fill="url(#linear-gradient-23)"/><path d="M583.69,239.35a6,6,0,0,1-.17,1.47v.09c-3.18,15.81-55.39,28.4-119.26,28.4-64.41,0-116.9-12.78-119.31-28.78a5.91,5.91,0,0,1-.12-1.18,7.73,7.73,0,0,1,.24-1.9c2.12-8.66,18.93-16.32,44.22-21.43,20.47-4.17,46.54-6.68,75-6.68,27.57,0,52.94,2.37,73.13,6.3,26.19,5.11,43.69,12.87,46,21.67A7.23,7.23,0,0,1,583.69,239.35Z" transform="translate(-4.87 -6.78)" fill="#fdcd01"/><path d="M583.69,232.67c0,16.56-53.48,30-119.43,30s-119.43-13.45-119.43-30c0-2.13-.29-10.13.12-18.79,0-1,.08-2,.12-3.08,2.12-8.66,18.93-16.32,44.22-21.44,21.62,5.12,48.33,13.35,75,13.35,26.18,0,52-8.09,73.13-13.72,26.19,5.11,43.69,12.87,46,21.67,0,1.18.08,2.37.12,3.5v.1C583.89,223,583.69,230.73,583.69,232.67Z" transform="translate(-4.87 -6.78)" fill="#fdcd01"/><path d="M583.69,232.67c0,16.56-53.48,30-119.43,30s-119.43-13.45-119.43-30c0-2.13-.29-10.13.12-18.79,0-1,.08-2,.12-3.08,2.12-8.66,18.93-16.32,44.22-21.44,21.62,5.12,48.33,13.35,75,13.35,26.18,0,52-8.09,73.13-13.72,26.19,5.11,43.69,12.87,46,21.67,0,1.18.08,2.37.12,3.5v.1C583.89,223,583.69,230.73,583.69,232.67Z" transform="translate(-4.87 -6.78)" fill="url(#linear-gradient-24)"/><path d="M583.69,212.7a5.86,5.86,0,0,1-.17,1.46v.1c-3.18,15.81-55.39,28.4-119.26,28.4-64.41,0-116.9-12.78-119.31-28.78a5.91,5.91,0,0,1-.12-1.18,7.73,7.73,0,0,1,.24-1.9c2.12-8.66,18.93-16.32,44.22-21.44,20.47-4.16,46.54-6.67,75-6.67,27.57,0,52.94,2.37,73.13,6.3,26.19,5.11,43.69,12.87,46,21.67A7.13,7.13,0,0,1,583.69,212.7Z" transform="translate(-4.87 -6.78)" fill="#fdcd01"/><path d="M560.73,210.81a5.06,5.06,0,0,1-.13,1.2v.08C558,225,515.24,235.35,462.92,235.35c-52.74,0-95.73-10.47-97.7-23.57a4.57,4.57,0,0,1-.1-1,6.34,6.34,0,0,1,.2-1.55c1.74-7.09,15.5-13.37,36.21-17.56,16.77-3.41,38.11-5.46,61.39-5.46,22.59,0,43.36,1.94,59.9,5.15,21.44,4.19,35.77,10.55,37.68,17.75A6.06,6.06,0,0,1,560.73,210.81Z" transform="translate(-4.87 -6.78)" fill="url(#linear-gradient-25)"/><path d="M439.81,225.77a81.33,81.33,0,0,1-8.13-.38,63.58,63.58,0,0,1-6.73-1,33.81,33.81,0,0,1-5-1.38,21.1,21.1,0,0,1-5.72-3.08,50,50,0,0,1-4.05-3.52l-13.78-13.52,1.37-.15a20,20,0,0,0,3.67,1.67,22.45,22.45,0,0,0,4.88,1.06,22.13,22.13,0,0,0,2.72.06q1.69-.06,3.84-.18c1.43-.08,2.92-.19,4.45-.33s3-.28,4.48-.44l5.22-.54,7.22-.74,8-.85,7.93-.86,7.25-.78,6-.65,6.13-.69q3.14-.36,7.23-.8c1.65-.18,3.3-.37,5-.58s3.23-.43,4.72-.67,2.79-.46,3.93-.68a9.71,9.71,0,0,0,2.29-.66q1.59-.82,1.74-1.5a2.55,2.55,0,0,0-.52-1.77l1.37-.15,13.47,13.21a12.36,12.36,0,0,1,2.28,2.91,3.84,3.84,0,0,1,.4,2.85c-.38,1.52-1.9,2.9-4.58,4.15s-6.75,2.16-12.22,2.76a64.64,64.64,0,0,1-16.27-.09,36.84,36.84,0,0,1-11.87-3.53L466,215a3.68,3.68,0,0,1,.44,3.05,5.82,5.82,0,0,1-2.49,3,21,21,0,0,1-5.7,2.54,50.22,50.22,0,0,1-9.12,1.7A85.85,85.85,0,0,1,439.81,225.77Zm61.45-14.07c2.88-1,4.58-2.15,5.12-3.31q.93-2.07-1.86-4.81a13,13,0,0,0-1.79-1.46,9.75,9.75,0,0,0-1.72-.94l-1.59.08-1.77.13-2.57.23-4,.37-10.6,1.08-11,1.17-8.76.95-4.37.47,2.23,2.2a17.51,17.51,0,0,0,1.62,1.43q4.27,3.45,12.43,4.6a70.9,70.9,0,0,0,17.45.13A48.33,48.33,0,0,0,501.26,211.7ZM450,219.64a35.47,35.47,0,0,0,5.39-1.71,12.65,12.65,0,0,0,3.5-2.08,3.85,3.85,0,0,0,1.37-2.3,3.06,3.06,0,0,0-.43-1.85,10.64,10.64,0,0,0-1.68-2l-3.88-3.8-8.75,1-8.35.9q-3.82.42-7,.79l-5.52.62q-5.16.6-8.41,1.06a20.57,20.57,0,0,0-5,1.17,2.52,2.52,0,0,0-1.46,1.33c-.2.54.15,1.26,1.06,2.15a21.79,21.79,0,0,0,3.06,2.41,20,20,0,0,0,5.51,2.27,50.51,50.51,0,0,0,10.6,1.68,77.18,77.18,0,0,0,12.89-.39A57.28,57.28,0,0,0,450,219.64Z" transform="translate(-4.87 -6.78)" fill="#fdcd01"/><polygon points="498.73 196.1 496.27 193.69 515.79 191.57 518.25 193.98 498.73 196.1" fill="#fdcd01"/><polygon points="503.73 201 501.27 198.6 520.8 196.48 523.25 198.89 503.73 201" fill="#fdcd01"/><polygon points="383.08 208.61 380.63 206.2 400.15 204.09 402.61 206.5 383.08 208.61" fill="#fdcd01"/><polygon points="388.09 213.52 385.63 211.11 405.15 209 407.61 211.41 388.09 213.52" fill="#fdcd01"/><path d="M371.81,194l156.77,42.64s34.45-4,41.91-12.66L416.6,184.7S375.26,191.37,371.81,194Z" transform="translate(-4.87 -6.78)" fill="url(#linear-gradient-26)"/><path d="M380.39,121.26c-9.65,8.53-10.55,21.48-11.34,27.4-1,7.36-1.31,14.89.08,22.18s4.57,14.39,9.85,19.6a3.89,3.89,0,0,0,1.45,1c1.21.39,2.47-.38,3.5-1.14a11.67,11.67,0,0,0,3.94-4.15c2-4.29-1.3-9-3.22-13.31-4-9.11-1.88-19.68,1-29.21,1.32-4.35,5.49-26.18-.34-25.54C383.3,118.35,383.34,118.66,380.39,121.26Z" transform="translate(-4.87 -6.78)" fill="#38d779"/><path d="M382.7,129.1c-8.18,9.93-7,22.87-6.89,28.84.19,7.42,1.06,14.9,3.57,21.89s6.78,13.49,12.82,17.81a3.76,3.76,0,0,0,1.59.78c1.26.2,2.38-.77,3.28-1.68a11.67,11.67,0,0,0,3.24-4.71c1.29-4.56-2.7-8.67-5.28-12.64-5.41-8.36-4.95-19.14-3.59-29,.62-4.51,1.3-26.73-4.36-25.17C385.12,125.76,385.21,126.06,382.7,129.1Z" transform="translate(-4.87 -6.78)" fill="url(#linear-gradient-27)"/><path d="M382.71,267.63c.16,2.7.29,5.67-1.35,7.83-4.27-2.55-5.56-8.07-6.1-13a107.66,107.66,0,0,1,.81-29.4,13.12,13.12,0,0,1,1.35-4.5c1.21-2.1,3.4-3.42,5.59-4.45a9.26,9.26,0,0,1,4.42-1.16,3.73,3.73,0,0,1,3.49,2.54,5.65,5.65,0,0,1-.31,2.81c-.93,3.23-1.61,6.58-3.34,9.49a26.64,26.64,0,0,0-3.35,7.82A69.71,69.71,0,0,0,382.71,267.63Z" transform="translate(-4.87 -6.78)" fill="url(#linear-gradient-28)"/><path d="M441.12,231.91c-3.16,2.45-7.3,3.21-11.29,3.49-1.47.1-2.94.14-4.41.21a8.24,8.24,0,0,0-7.89,7.84q-.18,4.58-.18,9.15c0,7.31.26,14.94-3,21.5-.67,1.37-1.75,2.83-3.28,2.86a3.65,3.65,0,0,1-2.21-.91,11.43,11.43,0,0,1-3.85-6.37,30.13,30.13,0,0,1-.65-7.53c0-9.68.84-19.55,4.61-28.47a20.22,20.22,0,0,1,1.48-2.94c2.29-3.63,6.29-5.94,10.46-7a41.72,41.72,0,0,1,12.82-.67c2,.13,4.08.3,6.12.41,1.14.05,5.4-.59,6.2.06C447.74,224.91,442.34,231,441.12,231.91Z" transform="translate(-4.87 -6.78)" fill="url(#linear-gradient-29)"/><path d="M356.22,227c-.45,9.62,11.85,57.47,14.53,59.26,2.23,1.53,6.24-.51,8.53-1.91.45-.32.77-.58,1.09-.77,1.78-1.34-1.09-38.1-1.09-38.1s-.89-12.49,7.84-19.76c9.75-8.09,20.9-15.54,20.14-21.28a3.81,3.81,0,0,0-1-2.29c-4.91-5.86-32.82-1.4-38.68,2.93a2.46,2.46,0,0,1-.32.19.21.21,0,0,0-.06.13c-.13.13-.32.38-.64.7-.45.57-1.15,1.4-1.91,2.36a70.4,70.4,0,0,0-5.54,9A26.1,26.1,0,0,0,356.22,227Z" transform="translate(-4.87 -6.78)" fill="#606161"/><path d="M359.09,217.48c0,2.49,19.17-1.66,21.53,2.49s-2.86,2.48-4.71,11.66,0,47.08,2,51.1a4.7,4.7,0,0,0,1.33,1.66c.45-.32.77-.58,1.09-.77,1.78-1.34-1.09-38.1-1.09-38.1s-.89-12.49,7.84-19.76c0,0-1.34-8.28,4.72-13,5.73-4.46,14.53-7.91,15.42-8.29-.7-.25-12.81-4-22.56-3.57a45.14,45.14,0,0,0-17.14,4.21,2.46,2.46,0,0,1-.32.19.21.21,0,0,0-.06.13c-.13.13-.32.38-.64.7-.45.57-1.15,1.4-1.91,2.36C362.27,211.62,359.09,216,359.09,217.48Z" transform="translate(-4.87 -6.78)" fill="url(#linear-gradient-30)"/><path d="M394.32,282.67c1.15,2.8,2.55,5.67,4.85,7.64s5.92,2.81,8.47,1.21c3-1.85,3.57-5.8,3.89-9.24,1-12,1.08-32.81,2.1-44.79a5.3,5.3,0,0,1,1.72-3.51l.06-.06a16,16,0,0,1,5.1-2.61c3.63-1.21,8.16-2.17,11.53-4.4a11.15,11.15,0,0,0,3.13-2.87c6-8.22,8.22-24.91,3.25-32.88a8.72,8.72,0,0,0-6.57-4.46c-8.66-1.08-24.27,4.59-27.91,12.43-1.14,2.55-1.65,5.35-3.31,7.58-2.87,4-8.54,5.23-11.34,9.31a16.94,16.94,0,0,0-2.3,7A109.33,109.33,0,0,0,394.32,282.67Z" transform="translate(-4.87 -6.78)" fill="#606161"/><path d="M413.76,231.12a4.19,4.19,0,0,0,.12,3.69c.51-.25,1-.57,1.47-.83l.06-.06c1.66-.89,3.38-1.78,5.1-2.61,2.42-1.09,5-2.11,7.52-3,1.34-.44,2.68-.89,4-1.4a11.15,11.15,0,0,0,3.13-2.87c6-8.22,8.22-24.91,3.25-32.88-4.85.32-9.56,2.55-14,4.66-2.61,1.27-5.22,2.48-7.71,4-1.66.95-5,2.35-2.42,4.2,3.57,2.49,10.39-1.91,13.13,2.11a6.13,6.13,0,0,1,.76,3c.13,1.53.26,3.12.38,4.72a11.61,11.61,0,0,1-.25,4.2,9.53,9.53,0,0,1-3.7,4.21c-2.86,2-6,3.63-8.54,5.92A9.65,9.65,0,0,0,413.76,231.12Z" transform="translate(-4.87 -6.78)" fill="url(#linear-gradient-31)"/><path d="M408,305.72a17.63,17.63,0,0,1-3.56,2.67l-5.58,3.46c-2,1.25-4.65,2.48-6.54,1.08-1.7-1.27-1.56-3.86-.89-5.87a18.44,18.44,0,0,1,5-7.79,5,5,0,0,0,1.21-1.39,4.11,4.11,0,0,0,.25-1.81l-.05-5.73c0-5.81,8-4.77,10.5-1.33C411.55,293.25,411.65,301.85,408,305.72Z" transform="translate(-4.87 -6.78)" fill="#606161"/><path d="M380.13,298.57c-1.2,2.22-3.49,3.63-5.77,4.72a41.21,41.21,0,0,1-7.06,2.6c-1,.28-2.28.47-3.07-.26a2.89,2.89,0,0,1-.73-1.52,11.43,11.43,0,0,1,2.79-10.28,19.09,19.09,0,0,0,3.09-3.34c1.09-1.91.86-4.25,1.05-6.44.44-4.79,8.07-3.55,9.93-.44S381.77,295.55,380.13,298.57Z" transform="translate(-4.87 -6.78)" fill="#606161"/><path d="M440.16,186.53c0,1.95-.19,4-1.35,5.58a10.06,10.06,0,0,1-3.79,2.71c-7.09,3.57-14.3,7.17-22.1,8.64s-16.41.57-22.73-4.24a13.65,13.65,0,0,1-5-6.54c-1-3.23-.32-6.7-.15-10.07.44-8.41-2.37-16.59-4.33-24.78s-3-17.17.72-24.72c2.93-6-3.37-10.93,2.18-14.57,7.79-5.11,16.95-7.59,29.73-5.69,4.95.74,21.83,7.68,23.66,12.34s-3.51,9.41-2.88,14.37C436.06,155,440.16,171,440.16,186.53Z" transform="translate(-4.87 -6.78)" fill="#38d779"/><path d="M429.81,159.34c-.07-2.35-2.1-4.07-3.63-5.85a17,17,0,0,1-4-12.05c.16-2.49,1.79-5.55,4.23-5a4.88,4.88,0,0,1,1.6.79,29.07,29.07,0,0,1,11.45,16,14.9,14.9,0,0,1,.49,7.13c-.68,3.19-2.88,5.84-5.25,8.09a44.62,44.62,0,0,1-16.54,9.89c-1.64.54-6.64,2.2-5.52-1C413.23,175.58,429.88,161.63,429.81,159.34Z" transform="translate(-4.87 -6.78)" fill="url(#linear-gradient-32)"/><path d="M430.05,187.94a1.93,1.93,0,0,0-.65-.68,2.17,2.17,0,0,0-1.24-.11,40.78,40.78,0,0,1-7.33.06,4.52,4.52,0,0,1-2.2-.59,1.68,1.68,0,0,1-.74-2c.32-.73,1.21-1,2-1.14a33.35,33.35,0,0,0,7.75-2.84,39.28,39.28,0,0,1,6.72-3.26c1.87-.56,4.41-.34,5.07,1.5a4.82,4.82,0,0,1,.19,1.31l.27,5.57c.11,2.06.19,4.24-.76,6.07-1.28,2.5-4.08,3.75-6.69,4.81a3.88,3.88,0,0,1-2.51.37C431.18,194.05,432,190.92,430.05,187.94Z" transform="translate(-4.87 -6.78)" fill="url(#linear-gradient-33)"/><path d="M425.35,186.64l-32.27,1.51-1.59.5s3.14,10.77,8.86,10.32S425.35,186.64,425.35,186.64Z" transform="translate(-4.87 -6.78)" fill="url(#linear-gradient-34)"/><path d="M411,192.41l-15.74.09s3.33,5.5,6.1,5.8Z" transform="translate(-4.87 -6.78)" fill="#38d779"/><path d="M411,192.41l-15.74.09s3.33,5.5,6.1,5.8Z" transform="translate(-4.87 -6.78)" fill="url(#linear-gradient-35)"/><path d="M440.07,127.27a109.25,109.25,0,0,1,13.82,19.13c2.76,4.85,5.22,10.31,4.37,15.83-.74,4.8-3.94,9-7.83,11.86s-8.45,4.78-13,6.6l-13.64,5.53a7.59,7.59,0,0,1-3.21.78c-3.47-.18-4.93-5-3.5-8.14s4.49-5.23,6.91-7.72c2.69-2.77,9.46-6.45,10.51-10.16a3.7,3.7,0,0,0,.14-2.13,4.33,4.33,0,0,0-1.37-1.76c-7.6-7-18.13-19.3-16-29.81C420,114.4,434.1,120.66,440.07,127.27Z" transform="translate(-4.87 -6.78)" fill="#38d779"/><path d="M406.84,128.72c-2.95,1.47-6.8,1.35-9.28-.83a7,7,0,0,1-2.28-4.17c-.69-4.56,3.17-8.81,2.83-13.42-.17-2.29-1.37-4.63-.55-6.78.69-1.84,10.94-4.81,11.31-2.89C411.48,114.24,418,123.14,406.84,128.72Z" transform="translate(-4.87 -6.78)" fill="#f4a982"/><path d="M407.41,101.31s1.07,20-9.7,18.61c0,0-1.68-.23-1.18-2.69s2.58-5,2.47-7.18S407.41,101.31,407.41,101.31Z" transform="translate(-4.87 -6.78)" fill="url(#linear-gradient-36)"/><path d="M380.58,88.89c-.13,2.22,1,4.79,1.79,6.7a74.86,74.86,0,0,0,4.81,9.55,22.43,22.43,0,0,0,5.67,7c2.49,1.72,5.8,2.48,8.54,1.27,2.55-1.08,4.14-3.63,5.36-6.18a27.61,27.61,0,0,0,2.67-12.74c-.18-3.29-1-8-3.88-10a4.09,4.09,0,0,0-2.31-.76c-1.07,0-1.88.68-2.86.78a8.5,8.5,0,0,1-2.19-.47c-.89-.17-1.79-.3-2.69-.38a30.29,30.29,0,0,0-9.53.58,9.59,9.59,0,0,0-3.81,1.58A4.06,4.06,0,0,0,380.58,88.89Z" transform="translate(-4.87 -6.78)" fill="#f4a982"/><path d="M399.55,184.15a9.83,9.83,0,0,0-1.09,6.4,2.79,2.79,0,0,0,.31,1.22,2.3,2.3,0,0,0,1.29.9c3.84,1.31,7.7-2.08,11.75-2.28,1,0,2,.1,3,0a9.62,9.62,0,0,0,3.57-1.55c1.17-.73,2.31-1.5,3.43-2.3,2.71-2,1.54-5.46-.69-7.33-2-1.69-3.62-1.41-5.91-.6C410.51,180.26,402.63,179.46,399.55,184.15Z" transform="translate(-4.87 -6.78)" fill="#f4a982"/><path d="M375.35,184.83a2.07,2.07,0,0,0-1,2.35,15.36,15.36,0,0,0,2.8,7.27,4.28,4.28,0,0,0,2.63,2c2,.27,3.42-1.78,5.27-2.54s4.32-.12,6.05-1.28c1.4-.93,1.89-2.76,2-4.44.25-3.32-5-5.57-7.81-6.27C381.93,181.05,378,182.89,375.35,184.83Z" transform="translate(-4.87 -6.78)" fill="#f4a982"/><path d="M409.29,90.69a1.68,1.68,0,0,1,.85-.16,1.44,1.44,0,0,1,1.07.83,3.34,3.34,0,0,1,.26,1.37,8.53,8.53,0,0,1-.19,2.08A3.53,3.53,0,0,1,409,97.66a2.29,2.29,0,0,1-2.61-1.6C405.85,94.1,407.51,91.44,409.29,90.69Z" transform="translate(-4.87 -6.78)" fill="#f4a982"/><path d="M408.69,94.26c.2-.36-.06-.81,0-1.21s.55-.78,1.12-1a.25.25,0,0,1,.18.14,3.23,3.23,0,0,1,.26,2.67,2.05,2.05,0,0,1-.46.89,1,1,0,0,1-.91.33,1.25,1.25,0,0,1-.84-.9C407.93,94.49,408.42,94.75,408.69,94.26Z" transform="translate(-4.87 -6.78)" fill="url(#linear-gradient-37)"/><path d="M425.35,186.64l.62,5.3L399.8,205.22,357.16,204l-23.27-31a1.79,1.79,0,0,1,1.3-2.87l46.94-3.47,15.28,31.88,2.94.39Z" transform="translate(-4.87 -6.78)" fill="#38d779"/><path d="M425.81,190.61a1.92,1.92,0,0,1-1.06,2L400.26,205a2.24,2.24,0,0,1-.95.23l-41.22-1.17a1.91,1.91,0,0,1-1.51-.79l-22.49-30a2,2,0,0,1,1.39-3.14l45.3-3.36a1.84,1.84,0,0,1,1,.19,1.65,1.65,0,0,1,.94.91l14.73,30.69,2.9.37,25-12.3Z" transform="translate(-4.87 -6.78)" fill="url(#linear-gradient-38)"/><path d="M426,191.93l-1.21.64c-4.71,2.57-21.93,11.82-24.49,12.42-3,.72-5.36-2-5.36-2l-16.61-33.18,3.47-2.8a1.65,1.65,0,0,1,.94.91l14.73,30.69,2.9.37,25-12.3.45,4Z" transform="translate(-4.87 -6.78)" fill="url(#linear-gradient-39)"/><path d="M404.68,93.89c0,.87,0,1.91.74,2.36,1.23-1.47,1.16-3.77,2.53-5.11.65-.63,1.58-1,2-1.82a2.9,2.9,0,0,0,.22-1.24,7.85,7.85,0,0,0-3.16-6A5.85,5.85,0,0,0,404.64,81c-1.81-.36-4.51,1.23-4,3.37.23,1,1.31,1.8,1.87,2.62A12.72,12.72,0,0,1,404,90,11.87,11.87,0,0,1,404.68,93.89Z" transform="translate(-4.87 -6.78)" fill="#606161"/></svg>